<?xml version="1.0" encoding="UTF-8" standalone="no"?>
<!DOCTYPE svg PUBLIC "-//W3C//DTD SVG 1.1//EN" "http://www.w3.org/Graphics/SVG/1.1/DTD/svg11.dtd">
<svg width="100%" height="100%" viewBox="0 0 65 65" version="1.1" xmlns="http://www.w3.org/2000/svg"
    xmlns:xlink="http://www.w3.org/1999/xlink" xml:space="preserve" xmlns:serif="http://www.serif.com/"
    style="fill-rule:evenodd;clip-rule:evenodd;">
    <rect id="Artboard1" x="0" y="0" width="65" height="65" style="fill:none;" />
    <clipPath id="_clip1">
        <rect id="Artboard11" serif:id="Artboard1" x="0" y="0" width="65" height="65" />
    </clipPath>
    <g clip-path="url(#_clip1)">
        <g transform="matrix(0.738636,0,0,0.738636,-14.7727,-14.7727)">
            <circle cx="64" cy="64" r="42" style="fill:rgb(238,243,255);stroke:rgb(54,113,250);stroke-width:2px;" />
            <path
                d="M83.875,47.662C84.653,47.648 85.407,47.939 85.975,48.472L87.431,49.835C87.98,50.347 88.316,51.048 88.372,51.796C88.432,52.567 88.19,53.333 87.698,53.93L58.096,83.561L41.687,68.246C41.117,67.715 40.776,66.982 40.738,66.204C40.698,65.426 40.964,64.662 41.478,64.077L42.792,62.575C43.286,62.01 43.976,61.651 44.722,61.57C45.49,61.485 46.262,61.701 46.875,62.172L57.902,72.44L81.803,48.54C82.353,47.989 83.097,47.674 83.875,47.662Z"
                style="fill:rgb(254,254,254);stroke:rgb(38,55,94);stroke-width:2px;stroke-linecap:round;" />
        </g>
    </g>
</svg>