<?xml version="1.0" encoding="utf-8"?>
<!-- Generator: Adobe Illustrator 28.3.0, SVG Export Plug-In . SVG Version: 6.00 Build 0)  -->
<svg version="1.1" id="Layer_1" xmlns="http://www.w3.org/2000/svg" xmlns:xlink="http://www.w3.org/1999/xlink" x="0px" y="0px"
	 viewBox="0 0 1920 371.9" style="enable-background:new 0 0 1920 371.9;" xml:space="preserve">
<style type="text/css">
	.st0{fill:#FFFFFF;}
</style>
<g>
	<path class="st0" d="M197.9,93.3v4.8c-5.1,0.2-8.9,0.8-11.6,1.8c-2.6,1-4.3,2.9-5.1,5.7c-0.8,2.8-1.2,7.1-1.2,13v118.3
		c0,5.7,0.4,10,1.3,12.9c0.9,2.9,2.6,4.8,5.1,5.7c2.5,1,6.4,1.6,11.4,1.9v4.8c-4.3-0.3-9.7-0.5-16.2-0.6c-6.5-0.1-13.1-0.1-19.8-0.1
		c-7.8,0-15,0-21.6,0.1c-6.6,0.1-12,0.3-16.1,0.6v-4.8c5.1-0.3,8.9-1,11.4-1.9c2.5-1,4.3-2.9,5.1-5.7c0.9-2.9,1.3-7.2,1.3-12.9
		V118.6c0-5.9-0.4-10.2-1.3-13c-0.9-2.8-2.6-4.7-5.2-5.7c-2.6-1-6.4-1.6-11.3-1.8v-4.8c4.1,0.2,9.5,0.3,16.1,0.5
		c6.6,0.2,13.8,0.2,21.6,0.2c6.7,0,13.3-0.1,19.8-0.2C188.2,93.6,193.6,93.5,197.9,93.3z"/>
	<path class="st0" d="M300.2,135.5c6.7,0,12.1,0.8,16.3,2.5c4.2,1.7,7.5,3.9,9.9,6.8c2.5,3,4.4,6.9,5.6,11.7
		c1.2,4.8,1.8,11.2,1.8,19.3v64.1c0,6.7,1.2,11.2,3.5,13.6c2.3,2.4,6.2,3.6,11.8,3.6v5c-3-0.2-7.6-0.4-13.6-0.6
		c-6-0.2-12-0.4-17.9-0.4c-6,0-12,0.1-17.8,0.4c-5.8,0.2-10.2,0.4-13.2,0.6v-5c4.8,0,8.1-1.2,10-3.6c1.9-2.4,2.9-6.9,2.9-13.6v-74.2
		c0-4-0.4-7.4-1.2-10.4c-0.8-2.9-2.2-5.2-4.3-6.9c-2.1-1.7-5.2-2.5-9.3-2.5c-4.3,0-8.2,1.2-11.8,3.6c-3.6,2.4-6.4,5.7-8.6,9.9
		c-2.1,4.2-3.2,8.9-3.2,14.2v66.3c0,6.7,1,11.2,3,13.6c2,2.4,5.3,3.6,9.9,3.6v5c-2.9-0.2-7-0.4-12.5-0.6c-5.5-0.2-11.2-0.4-17-0.4
		c-6,0-12.2,0.1-18.6,0.4c-6.4,0.2-11.1,0.4-14.3,0.6v-5c5.6,0,9.5-1.2,11.8-3.6c2.3-2.4,3.5-6.9,3.5-13.6v-75.1
		c0-7.2-1.1-12.4-3.2-15.9c-2.1-3.4-6.2-5.1-12-5.1v-5c5.1,0.5,10,0.7,14.8,0.7c6.7,0,12.9-0.3,18.7-0.8c5.8-0.6,11.2-1.4,16.1-2.5
		v21.5c4-8.1,9.4-13.8,16.2-17.2C284.1,137.2,291.7,135.5,300.2,135.5z"/>
	<path class="st0" d="M414.4,135.5c7,0,13.2,1.2,18.5,3.5c5.3,2.3,9.5,6.2,12.5,11.6l-2.9,2.6c-2.1-3.8-4.8-6.6-8.2-8.2
		c-3.4-1.7-7-2.5-10.8-2.5c-8.1,0-14.5,4.7-19.3,14.2c-4.8,9.5-7.1,24-6.9,43.8c0,13.5,0.9,24.3,2.7,32.3c1.8,8,4.4,13.8,7.9,17.3
		c3.4,3.5,7.4,5.2,11.8,5.2c5.4,0,10.3-2.1,14.5-6.4s6.6-10.1,6.9-17.4l1.2,8.3c-2.4,8.4-6.2,14.8-11.6,19.2
		c-5.3,4.4-12.3,6.6-20.9,6.6c-9.4,0-17.8-2.3-25.2-6.9c-7.4-4.6-13.2-11.7-17.3-21.3c-4.1-9.6-6.2-22.1-6.2-37.3
		c0-14.5,2.3-26.4,6.9-35.9c4.6-9.5,10.9-16.6,19-21.3C395.1,137.9,404.2,135.5,414.4,135.5z M475.2,75.4v160.5
		c0,7.2,1.1,12.4,3.3,15.9c2.2,3.4,6.2,5.1,11.9,5.1v5c-4.9-0.5-9.9-0.7-14.8-0.7c-6.7,0-12.9,0.2-18.7,0.7
		c-5.8,0.5-11.2,1.3-16.1,2.6V104c0-7.2-1.1-12.4-3.2-15.9c-2.1-3.4-6.2-5.1-12-5.1v-5c5.1,0.5,10,0.7,14.8,0.7
		c6.5,0,12.7-0.3,18.6-0.8C464.8,77.4,470.3,76.5,475.2,75.4z"/>
	<path class="st0" d="M619.2,136.2v99.9c0,7.2,1.1,12.4,3.3,15.9c2.2,3.4,6.2,5.1,11.9,5.1v5c-4.9-0.5-9.9-0.7-14.8-0.7
		c-6.7,0-12.9,0.2-18.6,0.7s-11.1,1.3-16.2,2.6v-21.5c-3.8,8-9.1,13.6-15.9,17c-6.8,3.4-14.3,5.1-22.5,5.1c-6.7,0-12.1-0.9-16.2-2.6
		c-4.1-1.7-7.4-4-9.8-6.7c-2.7-3-4.6-7-5.7-11.9c-1.1-4.9-1.7-11.3-1.7-19.1v-60.3c0-7.2-1.1-12.4-3.2-15.9c-2.1-3.4-6.2-5.1-12-5.1
		v-5c5.1,0.5,10,0.7,14.8,0.7c6.7,0,12.9-0.3,18.7-0.8c5.8-0.6,11.2-1.4,16.1-2.5v98.7c0,4,0.4,7.5,1.1,10.5c0.7,3,2.1,5.4,4.2,7
		c2.1,1.7,5.1,2.5,9.1,2.5c4.3,0,8.1-1.2,11.6-3.6c3.4-2.4,6.2-5.7,8.3-9.9c2.1-4.2,3.2-8.9,3.2-14.2v-62.5c0-7.2-1.1-12.4-3.2-15.9
		c-2.1-3.4-6.2-5.1-12-5.1v-5c5.1,0.5,10,0.7,14.8,0.7c6.7,0,12.9-0.3,18.7-0.8C608.9,138.2,614.3,137.3,619.2,136.2z"/>
	<path class="st0" d="M692.2,135.5c6.7,0,12.5,0.8,17.5,2.5c5,1.7,8.6,3.3,10.8,4.9c5.4,3.7,8.7,1.3,10-7.2h5
		c-0.3,4.5-0.6,9.9-0.7,16.3c-0.2,6.4-0.2,15-0.2,25.6h-5c-0.8-5.9-2.3-11.7-4.5-17.4c-2.2-5.7-5.4-10.4-9.7-14.1
		c-4.2-3.7-9.7-5.5-16.3-5.5c-4.6,0-8.5,1.3-11.7,3.9c-3.2,2.6-4.8,6.4-4.8,11.3c0,4.8,1.4,8.9,4.3,12.5c2.9,3.6,6.6,7,11.1,10.3
		c4.5,3.3,9.3,6.7,14.2,10.4c5.2,4,10,7.9,14.3,11.8c4.3,3.9,7.7,8.1,10.3,12.8c2.5,4.6,3.8,10.1,3.8,16.5c0,7.2-2.1,13.4-6.2,18.7
		c-4.1,5.3-9.6,9.4-16.3,12.3c-6.8,2.9-14.3,4.3-22.5,4.3c-4.8,0-9-0.5-12.8-1.4c-3.7-1-7-2.1-9.7-3.6c-2.1-1-4-1.9-5.8-2.7
		c-1.8-0.9-3.5-1.6-5.1-2.3c-1.6-0.5-3,0.1-4.2,1.7c-1.2,1.6-2.1,3.8-2.7,6.7h-5c0.3-5.1,0.6-11.3,0.7-18.6c0.2-7.3,0.2-17,0.2-29.1
		h5c1,8.6,2.7,16.2,5.2,22.8c2.5,6.6,6,11.8,10.4,15.5c4.4,3.7,9.9,5.6,16.6,5.6c2.7,0,5.3-0.6,7.9-1.7c2.5-1.1,4.6-2.9,6.3-5.5
		c1.7-2.5,2.5-5.8,2.5-9.8c0-7-2.3-12.8-6.8-17.4c-4.5-4.6-10.3-9.6-17.3-15c-5.1-4.1-9.9-8.2-14.4-12.3c-4.5-4.1-8.2-8.5-11.1-13.4
		c-2.9-4.8-4.3-10.4-4.3-16.6c0-7.2,1.9-13.2,5.7-18.1c3.8-4.9,8.9-8.6,15.1-11.1C678.3,136.7,685,135.5,692.2,135.5z"/>
	<path class="st0" d="M803.5,99.7v39.1h28.1v4.8h-28.1v96.3c0,4.8,0.9,8.1,2.6,10.1c1.7,2,4.4,3,7.9,3c2.9,0,5.7-1.1,8.6-3.2
		c2.9-2.1,5.4-5.8,7.6-11.1l4.1,2.1c-2.5,7.2-6.4,13-11.6,17.6c-5.2,4.6-12.2,6.9-21.1,6.9c-5.2,0-9.9-0.7-13.8-2
		c-4-1.3-7.3-3.4-10-6.1c-3.5-3.5-5.8-7.8-6.9-13c-1.1-5.2-1.7-11.9-1.7-20.1v-80.6h-20v-4.8h20v-31.5c6.7,0,12.8-0.6,18.5-1.8
		C793.3,104.4,798.6,102.4,803.5,99.7z"/>
	<path class="st0" d="M921,135.5c5.1,0,9.2,1.1,12.4,3.2c3.2,2.1,5.5,4.9,7,8.2c1.5,3.3,2.3,6.8,2.3,10.5c0,5.9-1.7,10.7-5.1,14.4
		c-3.4,3.7-7.9,5.6-13.5,5.6c-5.6,0-9.9-1.4-13-4.2c-3.1-2.8-4.6-6.5-4.6-11.1c0-4.4,1-8.1,3-11.1c2-2.9,4.5-5.4,7.5-7.5
		c-2.2-0.6-4.5-0.6-6.7,0.2c-3,0.5-5.9,1.7-8.6,3.7c-2.7,2-5,4.5-6.9,7.4c-1.9,2.9-3.4,6.1-4.5,9.5c-1.1,3.4-1.7,6.7-1.7,9.9v63.2
		c0,7.6,1.9,12.8,5.6,15.5c3.7,2.7,9.3,4.1,16.8,4.1v5c-3.7-0.2-9-0.4-16-0.6c-7-0.2-14.3-0.4-21.9-0.4c-6.4,0-12.8,0.1-19.3,0.4
		c-6.5,0.2-11.4,0.4-14.8,0.6v-5c5.6,0,9.5-1.2,11.8-3.6c2.3-2.4,3.5-6.9,3.5-13.6v-75.1c0-7.2-1.1-12.4-3.2-15.9
		c-2.1-3.4-6.2-5.1-12-5.1v-5c5.1,0.5,10,0.7,14.8,0.7c6.7,0,12.9-0.3,18.7-0.8c5.8-0.6,11.2-1.4,16.1-2.5v22.2
		c1.9-4.3,4.4-8.2,7.6-11.7c3.2-3.5,6.8-6.2,11-8.2C911.4,136.5,916,135.5,921,135.5z"/>
	<path class="st0" d="M1067,138.8v4.8c-3,0.8-5.9,2.7-8.6,5.6c-2.7,2.9-5.3,7.9-7.9,14.9l-33.6,94.4l-8.8,16.7l-52-118
		c-2.7-6.2-5.4-10-8-11.3c-2.6-1.3-4.9-2-6.8-2v-5c5.2,0.5,10.7,0.8,16.3,1.1c5.6,0.2,11.1,0.4,16.3,0.4c6.5,0,12.5-0.2,17.9-0.5
		c5.4-0.3,10.5-0.6,15.3-1v5c-3.2,0-6.2,0.2-8.9,0.6c-2.8,0.4-4.7,1.5-5.7,3.3c-1,1.8-0.6,5,1.3,9.4l30,72.5l-2.1,1.4l17.6-49.4
		c3-8.6,4.3-15.6,3.8-21.1c-0.5-5.5-2.2-9.6-5.2-12.4c-3-2.8-7.2-4.3-12.4-4.6v-4.8c2.5,0.2,5.2,0.3,7.9,0.4
		c2.7,0.1,5.4,0.2,8.1,0.2c2.7,0.1,5.1,0.1,7.2,0.1c3.2,0,6.5-0.1,10-0.2C1062.1,139.2,1064.9,139,1067,138.8z M1016.9,258.5
		l-9.1,25.5c-1.6,4-3.2,7.4-4.9,10.1c-1.7,2.8-3.5,5-5.6,6.8c-2.2,1.9-5.1,3.4-8.6,4.4c-3.5,1-7.6,1.5-12.2,1.5
		c-3.8,0-7.7-0.6-11.8-1.9c-4.1-1.3-7.4-3.3-10.1-6.2c-2.7-2.9-4.1-6.5-4.1-11c0-4.9,1.7-8.9,5.2-11.8c3.5-2.9,8.1-4.4,13.8-4.4
		c5.2,0,9.5,1.3,12.9,3.8c3.3,2.5,5,6.3,5,11.2c0,3.2-1,6.2-3,9.1c-2,2.9-5,5-8.9,6.4c0.8,0.2,1.7,0.2,2.9,0.2c1.1,0,2,0,2.6,0
		c4.8,0,9-1.5,12.6-4.5c3.7-3,6.7-7.8,9.1-14.3l8.3-24.6L1016.9,258.5z"/>
	<path class="st0" d="M1145.4,92.1l58.2,150c2.4,6,5.1,10.1,8.1,12c3,2,5.8,3.1,8.3,3.2v4.8c-3.2-0.3-7.1-0.5-11.7-0.6
		c-4.6-0.1-9.2-0.1-13.8-0.1c-6.2,0-12,0-17.4,0.1c-5.4,0.1-9.8,0.3-13.1,0.6v-4.8c8.1-0.3,13.3-1.7,15.5-4.2
		c2.2-2.5,1.7-7.7-1.4-15.9l-44.3-118.5l3.8-3.1l-41.5,107.8c-2.5,6.4-4.1,11.7-4.5,16.1c-0.5,4.4,0,7.8,1.3,10.4
		c1.3,2.5,3.7,4.4,6.9,5.5c3.3,1.1,7.4,1.8,12.3,1.9v4.8c-4.5-0.3-9.1-0.5-13.9-0.6c-4.9-0.1-9.3-0.1-13.5-0.1c-4,0-7.4,0-10.1,0.1
		c-2.8,0.1-5.4,0.3-7.7,0.6v-4.8c3.2-0.8,6.4-2.7,9.8-5.6c3.3-2.9,6.4-8,9.1-15.1l56-144.5c0.6,0,1.3,0,1.9,0
		C1144.1,92.1,1144.8,92.1,1145.4,92.1z M1174.5,193.4v4.8h-71.1l2.4-4.8H1174.5z"/>
	<path class="st0" d="M1283.9,136c7,0,13.5,1.7,19.7,5c6.1,3.3,10.2,9.1,12.3,17.2l-3.1,2.4c-2.2-6.7-5.7-11.5-10.4-14.5
		c-4.7-3-10.2-4.5-16.6-4.5c-9.4,0-17.2,4.9-23.5,14.5c-6.3,9.7-9.3,24.6-9.2,44.8c0,12.9,1.2,23.6,3.7,32.1
		c2.5,8.5,6.1,14.9,11,19.1c4.8,4.2,10.8,6.3,17.8,6.3c6.7,0,12.7-2.9,18.1-8.6c5.4-5.7,8.7-14.1,9.8-25.3l2.9,3.3
		c-1.3,12.1-5.1,21.4-11.6,27.9c-6.4,6.5-15.1,9.8-26.1,9.8c-9.9,0-18.5-2.4-25.9-7.2c-7.4-4.8-13-11.9-16.9-21.5
		c-3.9-9.5-5.8-21.5-5.8-36c0-14.5,2.5-26.5,7.5-36.1c5-9.6,11.6-16.8,19.8-21.6C1265.5,138.4,1274.4,136,1283.9,136z M1334,75.2
		v160.9c0,7.2,1.3,12.4,3.9,15.9c2.6,3.4,7.4,5.1,14.2,5.1v5c-4.9-0.5-9.9-0.7-14.8-0.7c-4.6,0-9,0.2-13.2,0.7
		c-4.2,0.5-8.1,1.3-11.6,2.6V103.8c0-7.2-1.3-12.4-3.8-15.9c-2.5-3.4-7.3-5.1-14.3-5.1v-5c5.1,0.5,10,0.7,14.8,0.7
		c4.6,0,9-0.3,13.2-0.8C1326.7,77.1,1330.5,76.3,1334,75.2z"/>
	<path class="st0" d="M1473,139.3v4.8c-3,0.3-5.8,1.7-8.3,4.1c-2.5,2.4-4.9,6.6-7.2,12.6l-39.1,102.5c-0.6,0-1.3,0-1.9,0
		c-0.6,0-1.4,0-2.1,0l-43.9-105.6c-2.5-6.2-5-10-7.5-11.3c-2.5-1.3-4.6-2-6.3-2v-5c3.2,0.2,6.5,0.4,9.9,0.6
		c3.4,0.2,7.1,0.4,11.1,0.4c4.9,0,10.1-0.1,15.6-0.2c5.5-0.2,10.6-0.4,15.4-0.7v5c-4,0-7.5,0.3-10.6,0.8c-3.1,0.6-5.1,2.1-6,4.6
		c-0.9,2.5-0.1,6.9,2.3,13.1l29.8,73.7l-1.4,1.2l27.2-71.3c2.1-5.2,2.9-9.4,2.5-12.5c-0.4-3.1-2-5.4-4.8-7c-2.8-1.6-7-2.5-12.8-2.9
		v-4.8c2.9,0.2,5.3,0.3,7.4,0.4c2.1,0.1,4.1,0.2,6.1,0.2c2,0.1,4.2,0.1,6.6,0.1c3.7,0,7-0.1,9.9-0.2
		C1467.7,139.6,1470.5,139.5,1473,139.3z"/>
	<path class="st0" d="M1520.2,136.7v103.2c0,6.7,1.4,11.2,4.2,13.6c2.8,2.4,7.4,3.6,13.9,3.6v5c-2.7-0.2-6.8-0.4-12.3-0.6
		c-5.5-0.2-11-0.4-16.6-0.4c-5.4,0-10.9,0.1-16.5,0.4c-5.6,0.2-9.7,0.4-12.4,0.6v-5c6.5,0,11.2-1.2,13.9-3.6
		c2.8-2.4,4.2-6.9,4.2-13.6v-74.6c0-7.2-1.3-12.4-3.8-15.9c-2.5-3.4-7.3-5.1-14.3-5.1v-5c5.1,0.5,10,0.7,14.8,0.7
		c4.6,0,9-0.3,13.2-0.8C1512.9,138.6,1516.7,137.8,1520.2,136.7z M1507.8,79.7c4.1,0,7.7,1.5,10.7,4.5c3,3,4.5,6.6,4.5,10.7
		c0,4.1-1.5,7.7-4.5,10.7c-3,3-6.6,4.5-10.7,4.5c-4.1,0-7.7-1.5-10.7-4.5c-3-3-4.5-6.6-4.5-10.7c0-4.1,1.5-7.7,4.5-10.7
		C1500.1,81.2,1503.7,79.7,1507.8,79.7z"/>
	<path class="st0" d="M1610.1,136c5.1,0,10,0.6,14.8,1.9c4.8,1.3,9.1,3.2,12.9,5.7c3.7,2.4,6.4,5.1,8.3,8.2
		c1.9,3.1,2.9,6.5,2.9,10.1c0,4.3-1.2,7.6-3.6,9.9c-2.4,2.3-5.4,3.5-9.1,3.5c-3.5,0-6.6-1-9.2-3.1c-2.6-2.1-3.9-5-3.9-8.8
		c0-3.7,1-6.6,3-8.8c2-2.2,4.3-3.7,7-4.3c-1.6-2.9-4.4-5.2-8.5-7.2c-4.1-1.9-8.4-2.9-13-2.9c-4,0-8,1-11.9,2.9c-4,1.9-7.6,5-11,9.4
		c-3.3,4.4-6,10.3-8.1,17.9c-2.1,7.6-3.1,17-3.1,28.3c0,14,1.6,25.1,4.8,33.4c3.2,8.3,7.4,14.2,12.5,17.8c5.2,3.6,10.8,5.4,17,5.4
		c4.1,0,8.3-0.8,12.6-2.4c4.3-1.6,8.3-4.2,12.2-7.7c3.8-3.6,7.1-8.4,9.8-14.4l4.5,1.7c-1.6,5.1-4.2,10.2-7.9,15.4
		c-3.7,5.2-8.4,9.4-14.3,12.8c-5.9,3.3-13.1,5-21.7,5c-9.9,0-18.8-2.5-26.7-7.6c-8-5.1-14.3-12.4-19-21.8c-4.7-9.5-7-20.7-7-33.7
		c0-13,2.3-24.5,7-34.5c4.7-9.9,11.2-17.7,19.7-23.4C1589.7,138.8,1599.3,136,1610.1,136z"/>
	<path class="st0" d="M1724.3,136c14,0,24.9,4.3,32.8,12.8c7.9,8.5,11.8,21.7,11.8,39.7h-84.2l-0.2-4.5h61.5
		c0.3-7.8-0.3-15-1.9-21.6c-1.6-6.6-4.1-11.9-7.5-15.9c-3.4-4-7.8-6-13.2-6c-7.3,0-13.8,3.7-19.4,11c-5.6,7.3-9,18.9-10.1,34.8
		l0.7,1c-0.3,2.4-0.6,5-0.7,7.9c-0.2,2.9-0.2,5.7-0.2,8.6c0,10.8,1.7,20.1,5.2,27.9c3.5,7.8,8.1,13.7,13.7,17.8
		c5.6,4.1,11.5,6.1,17.5,6.1c4.8,0,9.3-0.8,13.6-2.3c4.3-1.5,8.3-4,11.9-7.5c3.7-3.5,6.8-8.2,9.5-14.1l4.8,1.9
		c-1.8,5.2-4.6,10.3-8.6,15.3c-4,4.9-9,8.9-15,12c-6,3.1-13,4.6-21,4.6c-11.4,0-21.3-2.6-29.4-7.9c-8.2-5.2-14.5-12.5-18.8-21.8
		c-4.4-9.3-6.6-20-6.6-32.1c0-14,2.2-26,6.7-36.1c4.4-10.1,10.7-17.9,18.8-23.4C1704.1,138.7,1713.5,136,1724.3,136z"/>
</g>
<g>
	<path class="st0" d="M1805.5,128c0,10.1-7.9,18.1-18.1,18.1s-17.9-8-17.9-18s7.8-18,18.1-18S1805.5,117.8,1805.5,128z M1803.2,128
		c0-8.9-6.6-15.6-15.6-15.6s-15.7,6.9-15.7,15.7c0,8.8,6.7,15.7,15.6,15.7S1803.2,136.8,1803.2,128z M1792.4,131.1l4.6,7.2h-3.5
		l-4.2-6.5h-0.9h-4.7v6.5h-3.5v-20.4h8.2c5.1,0,8.3,2.7,8.3,6.9C1796.7,127.9,1795.1,130.1,1792.4,131.1z M1793.4,124.8
		c0-2.6-1.9-4-5.2-4h-4.5v8.1h4.5C1791.5,128.9,1793.4,127.4,1793.4,124.8z"/>
</g>
</svg>
